<?xml version="1.0" standalone="no"?>
<!DOCTYPE svg PUBLIC "-//W3C//DTD SVG 20010904//EN"
 "http://www.w3.org/TR/2001/REC-SVG-20010904/DTD/svg10.dtd">
<svg version="1.0" xmlns="http://www.w3.org/2000/svg"
 width="375.000000pt" height="667.000000pt" viewBox="0 0 375.000000 667.000000"
 preserveAspectRatio="xMidYMid meet">

<g transform="translate(0.000000,667.000000) scale(0.100000,-0.100000)"
fill="#000000" stroke="none">
<path d="M938 6663 c519 -2 1365 -2 1880 0 515 1 91 2 -943 2 -1034 0 -1456
-1 -937 -2z"/>
<path d="M2158 3811 l-378 -216 0 -111 0 -112 -92 -54 c-51 -30 -117 -68 -145
-84 -29 -16 -53 -31 -53 -34 0 -6 88 -58 190 -113 30 -16 60 -33 65 -37 23
-18 466 -269 482 -274 15 -5 277 -38 308 -39 6 0 178 96 383 213 l372 214 0
217 0 217 -372 212 c-205 118 -375 214 -378 216 -3 1 -175 -96 -382 -215z
m616 -67 c9 -3 16 -12 16 -19 0 -29 -139 -304 -158 -314 -51 -27 -93 -14 -258
80 -87 50 -165 97 -173 104 -17 17 -7 49 22 63 12 7 135 30 272 51 138 21 253
39 257 40 3 0 13 -2 22 -5z m-619 -482 c155 -88 208 -127 203 -150 -2 -7 -44
-31 -95 -52 -72 -30 -95 -36 -106 -27 -13 10 -159 235 -188 289 -13 24 -3 39
19 31 9 -4 85 -45 167 -91z m965 81 c0 -31 -197 -323 -217 -322 -31 1 -188 75
-191 90 -1 8 10 26 25 41 36 33 342 208 366 208 10 0 17 -7 17 -17z"/>
<path d="M2545 3670 c-22 -4 -93 -15 -158 -25 -65 -10 -116 -22 -115 -27 2 -6
29 -24 61 -42 l56 -31 53 29 c188 105 198 114 103 96z"/>
<path d="M2565 3584 c-60 -35 -111 -67 -112 -72 -3 -8 124 -79 130 -72 8 9 97
203 95 206 -2 1 -52 -27 -113 -62z"/>
<path d="M2002 3308 c8 -13 41 -66 74 -118 l59 -94 3 69 c2 37 1 74 -2 81 -5
12 -125 84 -141 84 -4 0 -1 -10 7 -22z"/>
<path d="M2179 3228 c-6 -15 -5 -138 0 -147 5 -8 25 -4 72 15 98 39 100 32
-33 113 -21 12 -39 21 -39 19z"/>
<path d="M2998 3284 l-58 -35 0 -72 0 -72 65 100 c85 132 85 135 -7 79z"/>
<path d="M2823 3183 c-35 -19 -63 -38 -63 -42 0 -9 121 -63 127 -57 2 2 3 33
1 69 l-3 65 -62 -35z"/>
<path d="M1109 3422 c-9 -30 -8 -45 4 -73 27 -65 127 -89 171 -40 16 17 15 19
-25 25 -49 8 -119 70 -119 105 0 34 -18 24 -31 -17z"/>
<path d="M1118 3221 c-1 -4 -150 -93 -330 -196 l-328 -187 0 -107 c0 -90 -3
-110 -17 -123 -10 -9 -72 -46 -138 -84 -66 -37 -125 -72 -132 -78 -9 -8 46
-44 215 -141 124 -71 253 -145 286 -163 34 -19 66 -37 71 -42 6 -4 46 -27 90
-51 76 -41 87 -44 229 -60 l148 -17 379 217 378 216 1 215 0 215 -271 155
c-150 85 -298 170 -330 188 -56 32 -59 33 -51 11 5 -12 5 -41 1 -63 -8 -38 -5
-68 21 -230 4 -28 4 -60 0 -72 -11 -29 -48 -54 -80 -54 l-25 0 -3 120 c-2 72
1 120 7 120 19 0 41 32 41 60 0 24 -5 30 -31 35 -39 9 -109 75 -109 103 0 21
-15 30 -22 13z"/>
</g>
</svg>
